<svg xmlns="http://www.w3.org/2000/svg" width="700" height="470" viewBox="0 0 700 470"><image href="/images/blog/posts/content/jev-diagram-1.webp" width="700" height="470"/><g fill="#fefdf6"><rect x="22" y="16" width="294" height="30"/><rect fill="#a4d6fe" x="93" y="110" width="118" height="25"/><rect fill="#ffd59d" x="100" y="229" width="105" height="24"/><rect fill="#ffcbce" x="94" y="349" width="118" height="24"/><rect x="85" y="426" width="137" height="22"/><rect fill="#a4d6fe" x="453" y="110" width="118" height="25"/><rect fill="#b2f1ba" x="457" y="229" width="109" height="33"/><rect fill="#c7b2fc" x="447" y="351" width="129" height="24"/><rect x="462" y="426" width="128" height="22"/></g><g fill="#262626" text-anchor="middle" font-family="'Segoe Print','Bradley Hand',cursive" font-style="italic"><text x="29" y="38" text-anchor="start" font-size="20">1. Chat fijo vs UI generativa</text><text x="152" y="131" font-size="17">Solicitud del usuario</text><text x="152" y="250" font-size="17">Texto del LLM</text><text x="152" y="371" font-size="17">Burbuja de chat</text><text x="152" y="444" font-size="14">UI de chat fijo</text><text x="512" y="131" font-size="17">Solicitud del usuario</text><text x="512" y="247" font-size="17">Componer UI</text><text x="512" y="261" font-size="11">desde el catálogo</text><text x="512" y="373" font-size="17">Componentes reales</text><text x="512" y="444" font-size="14">UI generativa</text></g></svg>
